<?xml version="1.0" encoding="iso-8859-1"?>
<!-- Uploaded to: SVG Repo, www.svgrepo.com, Generator: SVG Repo Mixer Tools -->
<svg fill="#000000" version="1.1" id="Capa_1" xmlns="http://www.w3.org/2000/svg" xmlns:xlink="http://www.w3.org/1999/xlink" 
	 viewBox="0 0 60 60" xml:space="preserve">
<g>
	<path d="M35.98,51.804C35.887,51.336,35.477,51,35,51H25c-0.477,0-0.887,0.336-0.98,0.804l-2,7
		c-0.059,0.294,0.017,0.599,0.207,0.83C22.417,59.866,22.7,60,23,60h14c0.007,0,0.013,0,0.02,0c0.552,0,1-0.448,1-1
		c0-0.137-0.028-0.268-0.078-0.387L35.98,51.804z"/>
	<path d="M6,48H1c-0.552,0-1,0.448-1,1s0.448,1,1,1h5c0.552,0,1-0.448,1-1S6.552,48,6,48z"/>
	<path d="M59,48h-5c-0.552,0-1,0.448-1,1s0.448,1,1,1h5c0.552,0,1-0.448,1-1S59.552,48,59,48z"/>
	<rect x="23" y="36" width="6" height="14"/>
	<rect x="31" y="36" width="6" height="14"/>
	<path d="M51,27c3.72,0,7.008,1.861,9,4.695V3H44V0H16v3H0v28.695C1.992,28.861,5.28,27,9,27c2.664,0,5.096,0.966,7,2.548v2.808
		C14.349,30.312,11.826,29,9,29c-4.962,0-9,4.038-9,9c0,4.624,3.507,8.441,8,8.941V59c0,0.552,0.448,1,1,1s1-0.448,1-1V46.941
		c2.417-0.269,4.546-1.498,6-3.297V48h-4c-0.552,0-1,0.448-1,1s0.448,1,1,1h4h1h4V35c0-0.552,0.448-1,1-1h16c0.552,0,1,0.448,1,1v15
		h4h1h4c0.552,0,1-0.448,1-1s-0.448-1-1-1h-4v-4.356c1.454,1.799,3.583,3.028,6,3.297V59c0,0.552,0.448,1,1,1s1-0.448,1-1V46.941
		c4.493-0.5,8-4.317,8-8.941c0-4.962-4.038-9-9-9c-2.826,0-5.349,1.312-7,3.356v-2.808C45.904,27.966,48.336,27,51,27z M46,9h10v7
		H46V9z M46,18h10v7H46V18z M14,25H4v-7h10V25z M14,16H4V9h10V16z M10,44.92v-2.506l2.707-2.707c0.391-0.391,0.391-1.023,0-1.414
		s-1.023-0.391-1.414,0L9,40.586l-2.293-2.293c-0.391-0.391-1.023-0.391-1.414,0s-0.391,1.023,0,1.414L8,42.414v2.506
		C4.613,44.432,2,41.519,2,38c0-3.86,3.14-7,7-7s7,3.14,7,7C16,41.519,13.387,44.432,10,44.92z M29,30h-9v-7h9V30z M29,21h-9v-7h9
		V21z M29,12h-9V5h9V12z M40,30h-9v-7h9V30z M40,21h-9v-7h9V21z M40,12h-9V5h9V12z M51,31c3.86,0,7,3.14,7,7
		c0,3.519-2.613,6.432-6,6.92v-2.506l2.707-2.707c0.391-0.391,0.391-1.023,0-1.414s-1.023-0.391-1.414,0L51,40.586l-2.293-2.293
		c-0.391-0.391-1.023-0.391-1.414,0s-0.391,1.023,0,1.414L50,42.414v2.506c-3.387-0.488-6-3.401-6-6.92C44,34.14,47.14,31,51,31z"/>
</g>
</svg>