<?xml version="1.0" encoding="iso-8859-1"?>
<!-- Uploaded to: SVG Repo, www.svgrepo.com, Generator: SVG Repo Mixer Tools -->
<svg height="800px" width="800px" version="1.1" id="Capa_1" xmlns="http://www.w3.org/2000/svg" xmlns:xlink="http://www.w3.org/1999/xlink" 
	 viewBox="0 0 31.192 31.192" xml:space="preserve">
<g>
	<path style="fill:#030104;" d="M10.898,10.787c0.314,2.613,2.564,5.318,4.604,5.318c2.341,0,4.571-2.845,4.919-5.319
		c0.129-0.095,0.348-0.322,0.428-0.838c0,0,0.502-1.792-0.164-1.6c0.232-0.69,1-3.379-0.485-5.052c0,0-0.697-0.947-2.386-1.452
		c-0.059-0.051-0.12-0.1-0.189-0.148c0,0,0.037,0.043,0.094,0.12c-0.098-0.027-0.195-0.052-0.301-0.077
		c-0.092-0.096-0.193-0.194-0.311-0.301c0,0,0.104,0.106,0.225,0.282c-0.044-0.01-0.086-0.02-0.134-0.03
		c-0.076-0.118-0.17-0.237-0.288-0.358c0,0,0.049,0.091,0.117,0.24c-0.312-0.228-0.938-0.758-0.938-1.349
		c0,0-0.394,0.184-0.623,0.517c0.092-0.276,0.242-0.531,0.488-0.74c0,0-0.26,0.133-0.496,0.419
		c-0.184,0.102-0.604,0.391-0.747,0.903l-0.133-0.066c0.065-0.148,0.158-0.299,0.282-0.455c0,0-0.182,0.164-0.342,0.425
		l-0.271-0.138c0.08-0.151,0.188-0.304,0.331-0.459c0,0-0.144,0.113-0.302,0.303c0.045-0.176,0.036-0.377-0.511,0.222
		c0,0-2.466,1.071-3.183,3.288c0,0-0.422,1,0.137,3.944c-0.792-0.374-0.251,1.562-0.251,1.562
		C10.55,10.466,10.767,10.691,10.898,10.787z M10.851,9.738c0,0.002,0,0.002,0,0.003C10.851,9.74,10.851,9.74,10.851,9.738z
		 M15.384,0.517c-0.118,0.167-0.224,0.376-0.273,0.631l-0.088-0.035C15.091,0.898,15.204,0.694,15.384,0.517z"/>
	<path style="fill:#030104;" d="M25.876,19.226c-0.645-1.43-4.577-2.669-4.577-2.669c-2.095-0.738-2.109-1.476-2.109-1.476
		c-4.121,8.125-7.253,0.022-7.253,0.022c-0.286,1.097-4.525,2.381-4.525,2.381c-1.24,0.478-1.765,1.192-1.765,1.192
		c-1.834,2.719-2.049,8.769-2.049,8.769c0.024,1.383,0.618,1.525,0.618,1.525c4.218,1.882,10.831,2.215,10.831,2.215
		c6.792,0.144,11.733-1.929,11.733-1.929c0.718-0.454,0.738-0.812,0.738-0.812C28.019,24.108,25.876,19.226,25.876,19.226z
		 M17.976,26.946h-4.759V25.14h4.759V26.946z"/>
</g>
</svg>