<?xml version="1.0" encoding="UTF-8"?>
<!DOCTYPE svg PUBLIC "-//W3C//DTD SVG 1.1//EN" "http://www.w3.org/Graphics/SVG/1.1/DTD/svg11.dtd">
<!-- Creator: CorelDRAW -->
<svg xmlns="http://www.w3.org/2000/svg" xml:space="preserve" width="2048px" height="2048px" style="shape-rendering:geometricPrecision; text-rendering:geometricPrecision; image-rendering:optimizeQuality; fill-rule:evenodd; clip-rule:evenodd"
viewBox="0 0 2048 2048"
 xmlns:xlink="http://www.w3.org/1999/xlink">
 <defs>
  <style type="text/css">
   <![CDATA[
    .fil2 {fill:none}
    .fil1 {fill:#212121;fill-rule:nonzero}
    .fil0 {fill:#66BB6A;fill-rule:nonzero}
   ]]>
  </style>
 </defs>
 <g id="Layer_x0020_1">
  <metadata id="CorelCorpID_0Corel-Layer"/>
  <g id="_475119120">
   <path id="_475120176" class="fil0" d="M986.652 1335.24l37.3477 37.3465 37.3465 -37.3465 -74.6942 0zm20.3788 88.2532l-95.1839 -95.1828c-4.40315,-4.35118 -7.13268,-10.3913 -7.13268,-17.0705 0,-13.2543 10.7457,-24 24,-24l190.57 0 0 0.0011811c6.14174,0 12.2847,2.34331 16.9701,7.02875 9.37205,9.37205 9.37205,24.5681 0,33.9402l-0.0011811 -0.0011811 -95.1969 95.1969 -0.0862205 0.0885827c-9.37205,9.37205 -24.5681,9.37205 -33.9402,0l0.0011811 -0.0011811z"/>
   <path id="_475119912" class="fil0" d="M992.161 1777.28c5.12481,12.1665 19.1457,17.8748 31.3122,12.75 12.1665,-5.12481 17.8748,-19.1457 12.75,-31.3122l-47.7213 -113.428 35.7425 -257.76c1.81181,-13.0984 -7.33938,-25.1882 -20.4378,-27 -13.0984,-1.81181 -25.1882,7.33938 -27,20.4378l-36.4087 262.564c-0.967324,4.60866 -0.592914,9.54686 1.37126,14.2158l22.1221 -9.30709 -22.0311 9.28111 50.3008 119.56z"/>
   <path id="_475119144" class="fil0" d="M1070.1 1381.97c-1.86378,-13.0984 -13.9961,-22.2071 -27.0945,-20.3433 -13.0984,1.86378 -22.2071,13.9961 -20.3433,27.0945l36.7796 256.169 -47.7603 113.832c-5.12481,12.2185 0.625985,26.2819 12.8445,31.4067 12.2185,5.12481 26.2819,-0.625985 31.4067,-12.8445l50.0552 -119.304c1.81772,-4.01929 2.55,-8.5878 1.87677,-13.2768l-0.0425197 0.00590552 -37.7221 -262.74z"/>
  </g>
  <path class="fil1" d="M820.072 1158.01l49.467 0c6.48308,0 12.3662,2.57244 16.6843,6.75119 21.9673,17.8158 45.0272,32.0587 68.8725,41.6847 22.2579,8.98465 45.3095,13.9169 68.9044,13.9169 23.5937,0 46.6453,-4.93229 68.9032,-13.9169 24.3874,-9.8445 47.9528,-24.5173 70.369,-42.9048l15.1878 18.4689 -15.2209 -18.5551c4.46693,-3.66496 9.86103,-5.44607 15.2209,-5.4437l0 -0.0011811 0.0578741 0 49.4115 0c107.342,0 204.91,43.8969 275.628,114.615 70.7186,70.7186 114.615,168.287 114.615,275.629l0 219.751c0,13.2543 -10.7457,24 -24,24l-1140.35 0c-13.2543,0 -24,-10.7457 -24,-24l0 -219.751c0,-107.342 43.8957,-204.911 114.615,-275.629 70.7186,-70.7186 168.286,-114.615 275.629,-114.615zm41.1792 48l-41.1792 0c-94.0926,0 -179.649,38.5111 -241.692,100.553 -62.0434,62.0422 -100.553,147.6 -100.553,241.692l0 195.751 1092.35 0 0 -195.751c0,-94.0914 -38.5111,-179.649 -100.553,-241.692 -62.0422,-62.0422 -147.599,-100.553 -241.69,-100.553l-41.1815 0c-24.1323,18.9047 -49.5626,34.1894 -76.0312,44.8737 -27.9544,11.2843 -56.9622,17.4791 -86.7166,17.4791 -29.7544,0 -58.7622,-6.19489 -86.7178,-17.4791 -26.4685,-10.6843 -51.8989,-25.9677 -76.0312,-44.8737z"/>
  <path class="fil1" d="M1024 256.001c114.973,0 219.09,27.6697 292.537,86.4001 67.3477,53.8536 108.467,132.76 108.467,239.069 0,117.764 -51.7831,275.413 -133.72,394.289 -70.3796,102.106 -163.604,176.667 -267.284,176.667 -103.68,0 -196.904,-74.5607 -267.284,-176.667 -81.9367,-118.876 -133.72,-276.525 -133.72,-394.289 0,-106.31 41.1189,-185.216 108.465,-239.069 73.4481,-58.7304 177.562,-86.4001 292.538,-86.4001zm262.723 123.713c-64.3619,-51.4666 -158.002,-75.7134 -262.723,-75.7134 -104.724,0 -198.362,24.2469 -262.725,75.7134 -56.054,44.8229 -90.2788,111.337 -90.2788,201.756 0,109.135 48.443,255.893 125.095,367.102 62.0882,90.0768 142.062,155.854 227.908,155.854 85.8461,0 165.82,-65.7768 227.908,-155.854 76.6524,-111.209 125.095,-257.967 125.095,-367.102 0,-90.4182 -34.2248,-156.932 -90.28,-201.756z"/>
 </g>
 <rect class="fil2" width="2048" height="2048"/>
</svg>
