<?xml version="1.0" encoding="iso-8859-1"?>
<!-- Uploaded to: SVG Repo, www.svgrepo.com, Generator: SVG Repo Mixer Tools -->
<!DOCTYPE svg PUBLIC "-//W3C//DTD SVG 1.1//EN" "http://www.w3.org/Graphics/SVG/1.1/DTD/svg11.dtd">
<svg fill="#000000" version="1.1" id="Capa_1" xmlns="http://www.w3.org/2000/svg" xmlns:xlink="http://www.w3.org/1999/xlink" 
	 width="800px" height="800px" viewBox="0 0 177.182 177.182"
	 xml:space="preserve">
<g>
	<g>
		<path d="M53.423,79.84c-1.395-1.303-2.22-2.85-2.22-4.692c0-9.475,8.96-21.814,22.798-27.44
			c-4.123-4.546-6.777-10.717-7.258-16.73c-5.538,1.772-10.501,6.038-12.209,11l-8.978,26.12
			C43.461,74.165,46.99,79.146,53.423,79.84z"/>
		<path d="M125.985,75.148c0,1.842-0.822,3.389-2.217,4.692c6.43-0.688,9.962-5.675,7.867-11.743l-8.976-26.12
			c-1.705-4.962-6.674-9.222-12.209-11c-0.469,6.013-3.13,12.178-7.258,16.73C117.021,53.334,125.985,65.674,125.985,75.148z"/>
		<path d="M80.136,48.968c-14.827,3.766-25.815,16.636-25.815,26.18c0,11.274,68.545,11.274,68.545,0
			c0-9.544-10.984-22.42-25.817-26.18c6.198-4.177,10.473-12.394,10.473-19.805c0-10.461-8.464-18.934-18.925-18.934
			c-10.455,0-18.925,8.473-18.925,18.934C69.666,36.568,73.938,44.791,80.136,48.968z M88.591,51.729
			c1.646,0,3.224-0.322,4.737-0.87l-3.143,3.589h-0.072l8.092,19.55l-9.614,9.596l-9.615-9.596l8.093-19.55h-0.085l-3.139-3.595
			C85.367,51.401,86.944,51.729,88.591,51.729z"/>
		<polygon points="177.182,108.642 177.182,100.495 154.469,83.594 172.335,100.495 4.844,100.495 22.709,83.594 0,100.495 
			0,108.642 16.474,108.642 16.474,157.806 12.382,157.806 12.382,162.421 6.284,162.421 6.284,166.952 170.898,166.952 
			170.898,162.421 164.796,162.421 164.796,157.806 160.705,157.806 160.705,108.642 		"/>
	</g>
</g>
</svg>