<?xml version="1.0" encoding="iso-8859-1"?>
<!-- Uploaded to: SVG Repo, www.svgrepo.com, Generator: SVG Repo Mixer Tools -->
<!DOCTYPE svg PUBLIC "-//W3C//DTD SVG 1.1//EN" "http://www.w3.org/Graphics/SVG/1.1/DTD/svg11.dtd">
<svg fill="#000000" version="1.1" id="Capa_1" xmlns="http://www.w3.org/2000/svg" xmlns:xlink="http://www.w3.org/1999/xlink" 
	 width="800px" height="800px" viewBox="0 0 186.778 186.778"
	 xml:space="preserve">
<g>
	<g>
		<polygon points="93.616,159.943 93.629,159.932 93.599,159.932 		"/>
		<path d="M125.046,150.426c-4.579-0.627-6.431-3.507-7.052-4.822c-0.791-1.699-1.229-4.165,0.062-7.307
			c-2.984-2.29-3.745-4.933-3.745-7.015c0-2.095,0.749-4.743,3.745-7.027c-1.291-3.142-0.853-5.608-0.062-7.307
			c0.621-1.327,2.473-4.202,7.052-4.829c0.268-1.961,0.95-3.592,2.07-4.938c2.362-2.813,6.211-3.679,10.096-2.077
			c2.277-2.983,4.92-3.732,7.003-3.732c0.249,0,0.535,0.049,0.804,0.073c-9.128-7.6-20.399-13.801-32.967-16.995
			c13.518-9.097,22.834-27.03,22.834-43.178C134.886,18.483,116.399,0,93.616,0C70.834,0,52.351,18.478,52.351,41.272
			c0,16.148,9.31,34.081,22.828,43.178c-32.324,8.202-56.279,36.267-56.279,57.062c0,12.294,37.348,18.426,74.699,18.42
			l-20.914-20.916l17.623-42.6h-0.184l-6.847-7.85c3.312,1.19,6.759,1.903,10.339,1.903c3.578,0,7.024-0.713,10.324-1.897
			l-6.844,7.837h-0.171l17.622,42.6l-20.919,20.917c10.726,0,21.442-0.512,31.289-1.522l1.242-4.634
			C125.63,152.771,125.21,151.693,125.046,150.426z"/>
		<path d="M138.625,152.74c-0.098-0.024-0.189-0.055-0.293-0.086c-2.204,1.596-4.226,2.077-5.888,1.754l-7.155,26.72l6.93-4.72
			l3.075,7.398l7.143-26.652C140.95,156.516,139.66,155.061,138.625,152.74z"/>
		<path d="M150.103,152.654c-0.104,0.031-0.194,0.056-0.286,0.086c-1.206,2.691-2.752,4.189-4.555,4.621l7.88,29.417l2.673-10.083
			l7.344,7.398l-7.923-29.545C153.72,154.579,151.966,154.007,150.103,152.654z"/>
		<path d="M163.456,127.592c-0.17-0.938-0.475-1.826-0.779-2.716c4.086-4.865,2.558-7.514-3.702-6.405
			c-0.621-0.707-1.267-1.352-1.961-1.961c1.108-6.26-1.547-7.794-6.405-3.702c-0.89-0.305-1.772-0.603-2.716-0.779
			c-2.168-5.907-5.188-5.907-7.356,0c-0.938,0.177-1.826,0.475-2.715,0.779c-4.865-4.092-7.515-2.569-6.4,3.702
			c-0.7,0.615-1.357,1.267-1.967,1.961c-6.26-1.108-7.794,1.54-3.702,6.405c-0.305,0.89-0.608,1.778-0.785,2.71
			c-5.889,2.162-5.889,5.193,0.006,7.361c0.177,0.932,0.475,1.827,0.779,2.71c-4.092,4.871-2.558,7.521,3.702,6.399
			c0.615,0.707,1.267,1.358,1.961,1.967c-1.108,6.266,1.541,7.795,6.406,3.709c0.889,0.305,1.777,0.603,2.722,0.779
			c2.161,5.888,5.182,5.888,7.35,0c0.938-0.183,1.826-0.487,2.722-0.792c4.865,4.092,7.514,2.569,6.399-3.702
			c0.7-0.609,1.352-1.267,1.961-1.973c6.266,1.114,7.794-1.528,3.702-6.4c0.305-0.883,0.609-1.777,0.792-2.709
			C169.351,132.779,169.351,129.76,163.456,127.592z M144.215,146.968c-8.653,0-15.692-7.027-15.692-15.698
			c0-8.664,7.039-15.691,15.692-15.691c8.658,0,15.697,7.027,15.697,15.691C159.912,139.935,152.873,146.968,144.215,146.968z"/>
	</g>
</g>
</svg>