<?xml version="1.0" encoding="utf-8"?>
<!-- Svg Vector Icons : http://www.onlinewebfonts.com/icon -->
<!DOCTYPE svg PUBLIC "-//W3C//DTD SVG 1.1//EN" "http://www.w3.org/Graphics/SVG/1.1/DTD/svg11.dtd">
<svg version="1.1" xmlns="http://www.w3.org/2000/svg" xmlns:xlink="http://www.w3.org/1999/xlink" x="0px" y="0px" viewBox="0 0 256 256" enable-background="new 0 0 256 256" xml:space="preserve">
<metadata> Svg Vector Icons : http://www.onlinewebfonts.com/icon </metadata>
<g><g><g><path fill="#000000" d="M90.5,27.9c-4.2,0.8-9.1,2.6-12.3,4.5c-4,2.3-9.5,8.3-11.6,12.6c-3.1,6.3-3.8,10-4.1,22.5l-0.3,10.9l-1.3,0.6c-2.4,1.1-3.1,7.7-1.8,14.3c0.9,4.4,5,12.5,7.9,15.8c1.6,1.8,2.5,3.5,3.2,5.9c1.3,4.3,3.4,8.4,6.2,12.3c1.2,1.7,2,3.3,1.8,3.5c-1.1,1.1-12,6.7-19.3,10c-4.5,2-11.9,5.4-16.6,7.4c-12.3,5.6-15.7,8-20.2,14.8c-6,8.9-10.8,22.8-11.8,34.8l-0.3,3.7l1.9,1.9c2.3,2.3,5.3,3.5,13,5.2c7.1,1.6,27.2,4.5,37.6,5.5c17,1.6,42.7,2.2,54.2,1.4l4.5-0.3l0.1-33l0.1-33l19.4-0.1l19.4-0.1l-10.8-4.8c-10.4-4.7-21.5-10.1-25.4-12.5l-1.9-1.1l2.2-2.9c2.6-3.4,5.2-8.6,6.4-12.8c0.5-1.8,1.6-3.8,2.8-5.2c6.1-7.1,9.6-17.2,8.7-25.4c-0.4-3.8-1.1-5.6-2.2-5.6c-1.4,0-1.6-1.8-1.9-12.8c-0.2-12.2-0.6-14.3-3.5-20.4c-4.2-8.6-10.9-14.1-20.9-17C109.1,27.3,95.8,26.9,90.5,27.9z"/><path fill="#000000" d="M128.1,180.8v24.8h38.6h38.6v2.5v2.5h-24.8c-13.7,0-24.8,0.1-24.8,0.2c0,0.1,0.5,1,1.2,2c0.6,1,1.3,2.6,1.5,3.6c0.1,1,0.3,2.1,0.4,2.4c0.2,0.5,5.3,0.6,23.3,0.6h23l0.3-2.2c0.9-5.7,6.6-10.5,12.6-10.6c6.3,0,11.8,4.6,13,11l0.3,1.8h7.3h7.3v-14v-14.1l-7-11l-7-11.1l-13.3,0.1l-13.3,0.1l-0.1,16.3l-0.1,16.4h-2.7h-2.7V179v-23.1h-35.9h-35.9V180.8z M235.1,182.1c2.8,4.4,5,8.5,5,9.1v1.1h-15.2h-15.2v-9.1v-9.1h10.2H230L235.1,182.1z"/><path fill="#000000" d="M143.6,210.5c-3.7,0.8-6.3,3.8-7,7.7c-0.4,2.6,0.4,5.1,2.4,7.4c5.3,5.9,14.9,2.8,15.9-5.1C155.7,214.2,149.9,209.1,143.6,210.5z"/><path fill="#000000" d="M216.3,210.5c-2.2,0.5-3.4,1.2-5.1,3.2c-1.9,2.1-2.3,3.4-2,6.9c0.5,6,6.8,9.7,12.5,7.4c1-0.4,2.3-1.1,2.8-1.6c2.5-2.2,3.5-7,2.3-10.3C225.3,212.1,220.5,209.6,216.3,210.5z"/><path fill="#000000" d="M128.1,214.9v4.4h2.5c2.3,0,2.5-0.1,2.5-1.2c0-1.7,1-4.3,2.3-6.1l1.2-1.6h-4.2h-4.2V214.9z"/></g></g></g>
</svg>